<svg id="Capa_1" enable-background="new 0 0 512 512" height="512" viewBox="0 0 512 512" width="512" xmlns="http://www.w3.org/2000/svg"><g><g><path d="m61.981 398.031h114.264v40.407h-114.264z" fill="#dff6fd"/><path d="m61.981 438.437h114.264v66.063h-124.366v-55.961c0-5.579 4.523-10.102 10.102-10.102z" fill="#fd8087"/><path d="m143.919 438.437h32.325v66.063h-32.325z" fill="#fe646f"/><path d="m143.919 398.031h32.325v40.407h-32.325z" fill="#c8effe"/><path d="m160.863 200.057c-9.282-.437-16.944 6.959-16.944 16.144v-19.747c0-8.703-6.688-16.191-15.381-16.601-9.282-.437-16.944 6.959-16.944 16.144v-19.747c0-8.703-6.688-16.191-15.381-16.601-9.282-.437-16.944 6.959-16.944 16.144v20.203c0-9.185-7.662-16.581-16.944-16.144-8.693.409-15.381 7.898-15.381 16.601v100.602l-9.524-15.434c-4.633-7.508-14.432-9.913-22.015-5.404-7.762 4.616-10.236 14.695-5.493 22.38l48.458 78.523c2.362 3.827 3.612 8.235 3.612 12.732v8.176h114.264v-181.373c-.001-8.7-6.689-16.188-15.383-16.598z" fill="#ca6e59"/><path d="m160.863 200.057c-4.114-.194-7.906 1.156-10.857 3.514 3.813 3.08 6.238 7.858 6.238 13.087v181.373h20v-181.373c.001-8.703-6.687-16.191-15.381-16.601z" fill="#bb5d4c"/></g><g><path d="m390.236 337.421h114.264v40.407h-114.264z" fill="#dff6fd"/><path d="m390.236 377.827h114.264v126.673h-124.365v-116.571c0-5.579 4.522-10.102 10.101-10.102z" fill="#ffe177"/><path d="m472.175 377.827h32.325v126.672h-32.325z" fill="#ffd15b"/><path d="m472.175 337.421h32.325v40.407h-32.325z" fill="#c8effe"/><path d="m489.119 139.447c-9.282-.437-16.944 6.959-16.944 16.144v-19.747c0-8.703-6.688-16.191-15.381-16.601-9.282-.437-16.944 6.959-16.944 16.144v-19.747c0-8.703-6.688-16.191-15.381-16.601-9.282-.437-16.944 6.959-16.944 16.144v20.203c0-9.185-7.662-16.581-16.944-16.144-8.693.409-15.381 7.898-15.381 16.601v100.602l-9.524-15.434c-4.633-7.508-14.432-9.913-22.015-5.404-7.762 4.616-10.236 14.695-5.493 22.38l48.458 78.523c2.362 3.827 3.612 8.235 3.612 12.732v8.176h114.262v-181.373c0-8.7-6.688-16.188-15.381-16.598z" fill="#ea9b58"/><path d="m489.119 139.447c-4.114-.194-7.906 1.156-10.857 3.514 3.813 3.08 6.238 7.858 6.238 13.087v181.373h20v-181.373c0-8.703-6.688-16.191-15.381-16.601z" fill="#d88a55"/></g><g><path d="m221.495 245.898h114.264v40.407h-114.264z" fill="#dff6fd"/><path d="m221.495 286.304h114.264v218.196h-124.366v-208.094c0-5.579 4.523-10.102 10.102-10.102z" fill="#528fd8"/><path d="m303.433 286.304h32.325v218.195h-32.325z" fill="#0573ce"/><path d="m303.433 245.898h32.325v40.407h-32.325z" fill="#c8effe"/><path d="m320.377 47.925c-9.282-.437-16.944 6.959-16.944 16.144v-19.747c0-8.703-6.688-16.191-15.381-16.601-9.282-.437-16.944 6.959-16.944 16.144v-19.746c0-8.703-6.688-16.191-15.381-16.601-9.282-.437-16.944 6.959-16.944 16.144v20.203c0-9.185-7.662-16.581-16.944-16.144-8.693.409-15.381 7.898-15.381 16.601v100.602l-9.524-15.434c-4.633-7.508-14.432-9.913-22.015-5.404-7.762 4.616-10.236 14.695-5.493 22.38l48.458 78.523c2.362 3.827 3.612 8.235 3.612 12.732v8.176h114.264v-181.372c-.001-8.703-6.689-16.191-15.383-16.6z" fill="#fed2a4"/><path d="m320.377 47.925c-4.114-.194-7.906 1.156-10.857 3.514 3.813 3.08 6.238 7.858 6.238 13.087v181.373h20v-181.374c.001-8.703-6.687-16.191-15.381-16.6z" fill="#ffbd86"/></g><g><circle cx="143.919" cy="466.418" r="8.081"/><circle cx="472.175" cy="405.808" r="8.081"/><circle cx="472.175" cy="438.133" r="8.081"/><path d="m161.216 192.568c-3.452-.161-6.803.402-9.897 1.636-1.072-11.876-10.537-21.285-22.431-21.846-3.453-.164-6.805.408-9.898 1.643-1.07-11.873-10.536-21.283-22.424-21.843-6.545-.309-12.735 2.001-17.46 6.507-4.223 4.028-6.814 9.532-7.266 15.321-3.083-1.224-6.434-1.786-9.862-1.628-12.638.595-22.538 11.182-22.538 24.102v24.47c0 4.142 3.357 7.5 7.5 7.5s7.5-3.358 7.5-7.5v-24.47c0-4.814 3.697-8.904 8.237-9.118 2.396-.117 4.681.736 6.409 2.387 1.727 1.649 2.679 3.872 2.682 6.26v.009 72.921c0 4.142 3.357 7.5 7.5 7.5s7.5-3.358 7.5-7.5l.001-93.12c0-2.396.955-4.626 2.688-6.28 1.728-1.648 4.014-2.495 6.398-2.378 4.54.214 8.233 4.3 8.233 9.108l.004 92.67c0 4.142 3.357 7.5 7.5 7.5s7.5-3.358 7.5-7.5v-72.921c0-.013-.002-.025-.002-.038.011-2.374.961-4.584 2.681-6.226 1.732-1.654 4.016-2.504 6.414-2.392 4.54.214 8.233 4.304 8.233 9.118l-.001 72.46c0 4.142 3.357 7.5 7.5 7.5s7.5-3.358 7.5-7.5v-52.7c0-.006.001-.013.001-.019 0-2.391.954-4.617 2.686-6.269 1.729-1.648 4.015-2.496 6.401-2.379 4.54.214 8.233 4.3 8.233 9.108v173.87h-99.258v-.68c0-5.886-1.634-11.648-4.728-16.669l-48.454-78.51c-.85-1.381-1.299-2.952-1.299-4.541 0-3.096 1.584-5.886 4.231-7.462 4.042-2.4 9.34-1.104 11.805 2.889l16.541 26.807c2.891 4.687 7.117 8.255 12.222 10.321l17.817 7.21c7.202 2.915 12.664 9.145 14.611 16.666.875 3.38 3.919 5.622 7.256 5.622.622 0 1.255-.078 1.885-.241 4.01-1.039 6.419-5.131 5.381-9.141-3.133-12.099-11.92-22.122-23.506-26.81l-17.817-7.211c-2.123-.859-3.881-2.343-5.084-4.292l-5.901-9.562v-38.997c0-4.142-3.357-7.5-7.5-7.5s-7.5 3.358-7.5 7.5v16.554c-7.51-6.675-18.839-8.081-27.876-2.709-7.132 4.245-11.564 12.045-11.564 20.355 0 4.366 1.218 8.654 3.527 12.409l48.458 78.516c1.632 2.649 2.495 5.69 2.495 8.795v8.18s0 0 0 0v34.608c-5.959 2.823-10.102 8.879-10.102 15.9v55.962c0 4.142 3.357 7.5 7.5 7.5s7.5-3.358 7.5-7.5v-55.961c0-1.435 1.167-2.602 2.602-2.602h106.764v58.563c0 4.142 3.357 7.5 7.5 7.5s7.5-3.358 7.5-7.5l-.004-287.84c0-12.914-9.894-23.496-22.524-24.092zm7.528 238.369h-99.264v-25.408h99.264z"/><path d="m504.5 239.96c4.143 0 7.5-3.358 7.5-7.5v-76.41c0-12.914-9.895-23.496-22.524-24.091-3.453-.164-6.81.404-9.907 1.639-1.071-11.878-10.536-21.289-22.431-21.849-3.452-.161-6.798.408-9.89 1.641-1.071-11.872-10.535-21.279-22.423-21.84-6.543-.303-12.741 2.003-17.47 6.512-4.223 4.027-6.814 9.53-7.266 15.316-3.082-1.224-6.424-1.789-9.863-1.628-12.632.596-22.526 11.182-22.526 24.102v76.032c-6.585-5.86-16.105-7.661-24.441-4.396v-142.962c0-12.915-9.896-23.498-22.528-24.093-.001 0-.001 0-.001 0-3.445-.161-6.803.404-9.897 1.638-1.071-11.873-10.537-21.281-22.428-21.841-3.446-.162-6.803.405-9.897 1.638-1.072-11.874-10.538-21.282-22.429-21.842-6.534-.301-12.74 2.006-17.466 6.513-4.221 4.027-6.811 9.529-7.26 15.315-3.085-1.225-6.429-1.786-9.867-1.625-12.633.595-22.528 11.177-22.528 24.092v76.035c-7.511-6.682-18.844-8.088-27.873-2.716-5.496 3.268-9.361 8.487-10.886 14.696-1.524 6.21-.515 12.627 2.843 18.069l48.458 78.521c1.632 2.646 2.495 5.687 2.495 8.794v42.78c-5.962 2.824-10.105 8.884-10.105 15.91v60.19c0 4.142 3.357 7.5 7.5 7.5s7.5-3.358 7.5-7.5v-60.19c0-1.429 1.151-2.59 2.57-2.607.012 0 .023.002.035.002.033 0 .064-.004.097-.005h106.668v210.7c0 4.142 3.357 7.5 7.5 7.5s7.5-3.358 7.5-7.5l-.001-243.98 36.983 59.937c1.635 2.641 2.498 5.678 2.498 8.784l-.004 42.789c-5.959 2.823-10.102 8.879-10.102 15.9v116.57c0 4.142 3.357 7.5 7.5 7.5s7.5-3.358 7.5-7.5v-116.571c0-1.435 1.167-2.602 2.602-2.602h106.764v119.173c0 4.142 3.357 7.5 7.5 7.5s7.5-3.358 7.5-7.5v-237.04c0-4.142-3.357-7.5-7.5-7.5s-7.5 3.358-7.5 7.5v62.46h-99.26v-.68c0-5.896-1.64-11.664-4.737-16.669l-48.455-78.527c-.843-1.362-1.288-2.927-1.288-4.524 0-3.095 1.584-5.886 4.235-7.465 4.034-2.4 9.325-1.103 11.793 2.894l16.545 26.807c2.892 4.685 7.117 8.253 12.221 10.318l17.818 7.21c7.201 2.915 12.663 9.145 14.61 16.666.875 3.38 3.919 5.622 7.256 5.622.622 0 1.255-.078 1.885-.241 4.01-1.039 6.419-5.131 5.381-9.141-3.133-12.1-11.92-22.123-23.505-26.811l-17.818-7.21c-2.122-.859-3.881-2.344-5.083-4.292l-5.897-9.557v-98.47c0-4.814 3.693-8.904 8.228-9.118 2.404-.116 4.681.737 6.409 2.387 1.729 1.651 2.683 3.878 2.683 6.271 0 .033.004.064.005.097v72.823c0 4.142 3.357 7.5 7.5 7.5s7.5-3.358 7.5-7.5l-.005-93.12c0-2.393.955-4.622 2.688-6.275 1.73-1.651 3.988-2.502 6.408-2.383 4.54.214 8.233 4.3 8.233 9.108v92.67c0 4.142 3.357 7.5 7.5 7.5s7.5-3.358 7.5-7.5v-72.92c0-2.392.953-4.619 2.683-6.271 1.729-1.651 4.013-2.497 6.405-2.388 4.539.214 8.232 4.304 8.232 9.118l.005 72.46c0 4.142 3.357 7.5 7.5 7.5s7.5-3.358 7.5-7.5v-52.718c0-.017-.002-.033-.002-.05.013-2.37.963-4.576 2.684-6.217 1.731-1.651 4.026-2.496 6.41-2.384 4.54.214 8.233 4.3 8.233 9.108v76.41c0 4.144 3.357 7.502 7.5 7.502zm-176.241 38.839h-99.264v-25.401h99.264zm0-40.401h-99.264v-.676c0-5.891-1.636-11.656-4.729-16.671l-48.458-78.522c-1.229-1.992-1.6-4.342-1.041-6.615.558-2.273 1.973-4.184 3.985-5.38 4.035-2.401 9.331-1.104 11.799 2.896l16.541 26.803c2.892 4.685 7.117 8.253 12.221 10.318l17.818 7.21c7.201 2.915 12.663 9.145 14.61 16.666.875 3.38 3.919 5.622 7.256 5.622.622 0 1.255-.078 1.885-.241 4.01-1.039 6.419-5.131 5.381-9.141-3.133-12.099-11.92-22.122-23.505-26.811l-17.818-7.21c-2.122-.859-3.881-2.344-5.083-4.292l-5.898-9.558v-98.474c0-4.809 3.693-8.895 8.233-9.109 2.396-.122 4.677.733 6.407 2.383 1.731 1.652 2.685 3.878 2.685 6.27v72.921c0 4.142 3.357 7.5 7.5 7.5s7.5-3.358 7.5-7.5v-93.125c0-2.391.953-4.618 2.685-6.27 1.729-1.65 4.002-2.498 6.406-2.383 4.54.214 8.234 4.3 8.234 9.109v92.668c0 4.142 3.357 7.5 7.5 7.5s7.5-3.358 7.5-7.5v-72.921c0-2.391.953-4.618 2.685-6.27 1.729-1.649 4.008-2.504 6.406-2.383 4.54.214 8.234 4.3 8.234 9.109v72.465c0 4.142 3.357 7.5 7.5 7.5s7.5-3.358 7.5-7.5v-52.718c0-2.391.953-4.618 2.685-6.27 1.729-1.649 4.02-2.502 6.405-2.383 4.541.214 8.235 4.3 8.235 9.109zm69.477 106.522h99.264v25.408h-99.264z"/><path d="m211.39 384.1c-4.143 0-7.5 3.358-7.5 7.5v112.9c0 4.142 3.357 7.5 7.5 7.5s7.5-3.358 7.5-7.5v-112.9c0-4.142-3.358-7.5-7.5-7.5z"/><circle cx="303.433" cy="319.156" r="8.081"/><circle cx="303.433" cy="351.481" r="8.081"/></g></g></svg>